<svg xmlns="http://www.w3.org/2000/svg" fill="none" viewBox="0 0 878 783">
  <g filter="url(#a)">
    <path fill="#839CC9" d="m595.33 729.36-8.9-3.75-6.11-44.63H437.14l-6.62 44.45-7.96 3.98a1.9 1.9 0 0 0 .84 3.58h171.2a1.9 1.9 0 0 0 .73-3.63Z"/>
    <path fill="#839CC9" d="M595.48 733H422.56c-.28 0-.55-.12-.74-.32a1.06 1.06 0 0 1 .74-1.8h172.92a1.04 1.04 0 0 1 1.04 1.06 1.06 1.06 0 0 1-1.04 1.05Z"/>
    <g filter="url(#b)">
      <path fill="#FBFCFD" fill-opacity=".6" d="M808.04 676.44H210c-3.19 0-6.24-1.29-8.49-3.57a12.26 12.26 0 0 1-3.52-8.6v-332.1c0-3.23 1.27-6.32 3.52-8.6A11.94 11.94 0 0 1 210 320h598.03c3.18 0 6.23 1.29 8.49 3.57a12.26 12.26 0 0 1 3.51 8.6v332.1a12.2 12.2 0 0 1-3.52 8.6 11.94 11.94 0 0 1-8.48 3.57Z"/>
      <path stroke="#B5C3DE" stroke-width="8" d="M808.04 680.44a15.9 15.9 0 0 0 11.33-4.76 16.2 16.2 0 0 0 4.67-11.4V332.16a16.2 16.2 0 0 0-4.67-11.4c-3-3.04-7.07-4.75-11.33-4.76H210c-4.27 0-8.34 1.72-11.34 4.76a16.28 16.28 0 0 0-4.67 11.4v332.12c0 4.27 1.68 8.37 4.67 11.4 3 3.04 7.07 4.75 11.33 4.76h598.04Z"/>
    </g>
  </g>
  <g filter="url(#c)">
    <path fill="#fff" d="M408.86 402.79a6.54 6.54 0 0 0-6.55 6.55l.52 236.98a6.54 6.54 0 0 0 6.56 6.53l378.47-.93c3.6 0 6.52-2.94 6.52-6.54V409.33a6.54 6.54 0 0 0-6.54-6.54H408.86Z"/>
    <path fill="#BAC6F2" d="M424.72 420.03v9.2h55.2v-9.2h-55.2Zm106.93 0v9.2h28.75v-9.2h-28.75Zm42.55 0v9.2h28.74v-9.2H574.2Zm42.54 0v9.2h28.75v-9.2h-28.75Zm42.54 0v9.2h28.75v-9.2h-28.75Zm43.7 0v9.2h28.74v-9.2h-28.75Zm40.24 0v9.2h28.74v-9.2h-28.74Zm-209.27 39.1v8.05h23v-8.05h-23Zm43.12 0v8.05h23v-8.05h-23Zm42.54 0v8.05h23v-8.05h-23Zm42.54 0v8.05h23v-8.05h-23Zm42.55 0v8.05h23v-8.05h-23Zm42.54 0v8.05h23v-8.05h-23Zm-305.27 0v8.05h67.26v-8.05h-67.26Zm-11.79 9.77a5.46 5.46 0 1 0 0-10.92 5.46 5.46 0 0 0 0 10.92Zm103.77 14.37v8.05h23v-8.05h-23Zm43.12 0v8.05h23v-8.05h-23Zm42.54 0v8.05h23v-8.05h-23Zm42.54 0v8.05h23v-8.05h-23Zm42.55 0v8.05h23v-8.05h-23Zm42.54 0v8.05h23v-8.05h-23Zm-305.27 0v8.05h67.26v-8.05h-67.26Zm-11.79 9.78a5.46 5.46 0 1 0 0-10.93 5.46 5.46 0 0 0 0 10.93Zm103.78 14.37v8.05h23v-8.05h-23Zm43.11 0v8.05h23v-8.05h-23Zm42.55 0v8.05h23v-8.05h-23Zm42.54 0v8.05h23v-8.05h-23Zm42.54 0v8.05h23v-8.05h-23Zm42.54 0v8.05h23v-8.05h-23Zm-305.27 0v8.05h67.26v-8.05h-67.26Zm-11.79 9.78a5.46 5.46 0 1 0 0-10.93 5.46 5.46 0 0 0 0 10.92Zm103.78 14.36v8.05h23v-8.05h-23Zm43.11 0v8.05h23v-8.05h-23Zm42.55 0v8.05h23v-8.05h-23Zm42.54 0v8.05h23v-8.05h-23Zm42.54 0v8.05h23v-8.05h-23Zm42.54 0v8.05h23v-8.05h-23Zm-305.27 0v8.05h67.26v-8.05h-67.26Zm-11.79 9.78a5.46 5.46 0 1 0 0-10.93 5.46 5.46 0 0 0 0 10.93Zm103.78 14.37v8.05h23v-8.05h-23Zm43.11 0v8.05h23v-8.05h-23Zm42.55 0v8.05h23v-8.05h-23Zm42.54 0v8.05h23v-8.05h-23Zm42.54 0v8.05h23v-8.05h-23Zm42.54 0v8.05h23v-8.05h-23Zm-305.27 0v8.05h67.26v-8.05h-67.26Zm-11.79 9.78a5.46 5.46 0 1 0 0-10.93 5.46 5.46 0 0 0 0 10.93Zm103.78 14.37v8.04h23v-8.04h-23Zm43.11 0v8.04h23v-8.04h-23Zm42.55 0v8.04h23v-8.04h-23Zm42.54 0v8.04h23v-8.04h-23Zm42.54 0v8.04h23v-8.04h-23Zm42.54 0v8.04h23v-8.04h-23Zm-305.27 0v8.04h67.26v-8.04h-67.26Zm-11.79 9.77a5.46 5.46 0 1 0 0-10.92 5.46 5.46 0 0 0 0 10.92ZM533.96 604v8.05h23V604h-23Zm43.11 0v8.05h23V604h-23Zm42.55 0v8.05h23V604h-23Zm42.54 0v8.05h23V604h-23Zm42.54 0v8.05h23V604h-23Zm42.54 0v8.05h23V604h-23Zm-305.27 0v8.05h67.26V604h-67.26Zm-11.79 9.78a5.46 5.46 0 1 0 0-10.93 5.46 5.46 0 0 0 0 10.93Zm103.78 14.37v8.05h23v-8.05h-23Zm43.11 0v8.05h23v-8.05h-23Zm42.55 0v8.05h23v-8.05h-23Zm42.54 0v8.05h23v-8.05h-23Zm42.54 0v8.05h23v-8.05h-23Zm42.54 0v8.05h23v-8.05h-23Zm-305.27 0v8.05h67.26v-8.05h-67.26Zm-11.79 9.77a5.46 5.46 0 1 0 0-10.92 5.46 5.46 0 0 0 0 10.92Zm-86.52-285.15H237.88v18.4h105.78v-18.4Zm194.89 4.03H432.77v10.34h105.78V356.8Zm125.91 0H558.67v10.34h105.79V356.8Zm123.38-4.03h-92.7a6.54 6.54 0 0 0-6.54 6.54v5.31a6.54 6.54 0 0 0 6.55 6.55h92.7a6.54 6.54 0 0 0 6.54-6.55v-5.3a6.54 6.54 0 0 0-6.55-6.55Z"/>
    <path fill="#fff" d="M360.69 402.79H235.22a6.54 6.54 0 0 0-6.54 6.54v237a6.54 6.54 0 0 0 6.54 6.54H360.7a6.54 6.54 0 0 0 6.54-6.54v-237a6.54 6.54 0 0 0-6.54-6.54Z"/>
    <path fill="#BAC6F2" d="M354.58 466.6H243.05v8.05h111.53v-8.05Zm0 50.02H243.05v8.05h111.53v-8.05Zm0 50.01H243.05v8.05h111.53v-8.05Zm-10.92-146.6h-100.6v18.4h100.6v-18.4Zm10.92 59.79H243.05v8.05h111.53v-8.05Zm0 50.02H243.05v8.05h111.53v-8.05Zm0 50.02H243.05v8.04h111.53v-8.04Zm0-86.81H243.05v8.05h111.53v-8.05Zm0 50.01H243.05v8.05h111.53v-8.05Zm0 50.02H243.05v8.05h111.53v-8.05Z"/>
    <g filter="url(#d)">
      <path fill="#fff" d="M466.11 503.53c0 7.23 5.86 13.09 13.09 13.09h70.16c7.32 0 13.33-6 13.33-13.33v-6.8c0-4.98 9.84-10.82 9.84-10.82s-9.84-5.4-9.84-11.09v-7.89c0-7.23-5.86-12.74-13.1-12.74h-70.4a13.09 13.09 0 0 0-13.08 13.09v36.49Z"/>
      <path stroke="#407BFF" stroke-linejoin="round" stroke-width="3.27" d="M573.37 487.08a1.64 1.64 0 0 0-.05-2.84l-.02-.01h-.01l-.06-.04a21.41 21.41 0 0 1-1.35-.82 32.84 32.84 0 0 1-3.22-2.36 17.9 17.9 0 0 1-3.1-3.24 5.72 5.72 0 0 1-1.23-3.19v-7.89c0-8.2-6.66-14.37-14.73-14.37h-70.4a14.72 14.72 0 0 0-14.72 14.72v36.49c0 8.13 6.59 14.72 14.72 14.72h70.16c8.23 0 14.96-6.73 14.97-14.96v-6.8c0-.73.38-1.68 1.22-2.81a19.62 19.62 0 0 1 3.12-3.22 38.86 38.86 0 0 1 4.31-3.14l.3-.18.07-.05h.01v-.01Z"/>
    </g>
    <path fill="#407BFF" d="M480.48 465.45v8.05h23v-8.05h-23Zm46 0v8.05h23v-8.05h-23Z"/>
    <path fill="#BAC6F2" d="M480.48 481.55v8.05h23v-8.05h-23Z"/>
    <path fill="#407BFF" d="M526.48 481.55v8.05h23v-8.05h-23Z"/>
    <path fill="#BAC6F2" d="M480.48 497.64v8.05h23v-8.05h-23Zm46 .01v8.04h23v-8.04h-23Z"/>
    <path fill="#fff" stroke="#DE7C82" stroke-linejoin="round" stroke-width="3.27" d="M687.65 509.46c0 .6.3 1.14.8 1.44l.02.01a5.83 5.83 0 0 0 .37.23 37.56 37.56 0 0 1 4.31 3.14c1.18 1 2.3 2.1 3.13 3.21.84 1.14 1.21 2.1 1.21 2.82v6.8c0 8.23 6.74 14.96 14.97 14.96h70.16c8.13 0 14.73-6.6 14.73-14.72v-36.5c0-8.12-6.6-14.72-14.73-14.72h-70.4c-8.07 0-14.73 6.19-14.73 14.38v7.9c0 .94-.41 2.02-1.23 3.18a17.84 17.84 0 0 1-3.1 3.24 32.65 32.65 0 0 1-4.63 3.21l-.02.02m-.86 1.4 3.18 1.03-.29.17a23.38 23.38 0 0 1-.42.24l-.03.02h-.01l-.79-1.43-.79-1.43m-.85 1.4c.01-.58.34-1.12.85-1.4m-.85 1.4.85-1.4"/>
    <path fill="#DE7C82" d="M713.31 489.6v8.04h23v-8.04h-23Zm45.99 0v8.04h23v-8.04h-23Zm-45.99 16.1v8.04h23v-8.05h-23Zm45.99 0v8.04h23v-8.05h-23Z"/>
    <path fill="#BAC6F2" d="M713.31 521.8v8.04h23v-8.05h-23Zm45.99 0v8.04h23v-8.05h-23Z"/>
  </g>
  <g filter="url(#e)">
    <g clip-path="url(#f)">
      <rect width="142" height="142" x="127" y="493" fill="#FBFCFD" rx="23.68"/>
      <path fill="#A4B6D8" d="M147.14 641.04h-8.8v-45.3h8.8v45.3Zm18.13-57.9h-8.8v57.9h8.8v-57.9Zm18.47 5.39h-8.8v52.5h8.8v-52.5Zm18.8-21.49h-8.8v74h8.8v-74Zm19 28.49h-8.8v45.5h8.8v-45.5Zm18.8-9.75h-8.8v55.26h8.8v-55.26Zm19.48 9.75h-8.8v45.5h8.8v-45.5Z"/>
      <path fill="#C9D3E8" d="M165 641.04h-8.84v-57.9H165v57.9Zm37.42-74h-8.84v74h8.84v-74Zm37.97 18.74h-8.84v55.26h8.83v-55.26Z"/>
      <path fill="#9494DB" d="M147.14 607.7h-8.8v-11.96h8.8v11.96Zm18.13-24.56h-8.8v15.03h8.8v-15.03Zm18.47 5.39h-8.8v14.4h8.8v-14.4Zm18.8-21.49h-8.8v16.84h8.8v-16.84Zm19 28.49h-8.8v13.36h8.8v-13.36Zm18.8-9.75h-8.8v13.58h8.8v-13.58Zm19.48 9.75h-8.8v14.55h8.8v-14.55Z"/>
      <path fill="#9494DB" d="M165 598.17h-8.84v-15.03H165v15.03Zm37.42-31.13h-8.84v16.84h8.84v-16.84Zm37.97 18.74h-8.84v13.58h8.83v-13.58Z"/>
      <path fill="#2D9AFF" stroke="#2D9AFF" stroke-width="1.45" d="m228.68 510.91.12-.93-.93.12-13.9 1.76-1.47.19 1.04 1.04 3.93 3.96-38.55 38.77H141.3l-.21.21-23.24 23.38-1.23 1.23h9.23l.21-.21 17.95-18.05h37.62l.21-.22 40.25-40.47 3.61 3.63 1.05 1.05.18-1.47 1.75-13.99Z"/>
    </g>
  </g>
  <g filter="url(#g)">
    <rect width="210" height="210" x="43" y="216" fill="#FBFCFD" rx="20"/>
    <path fill="#2D9AFF" d="M128.46 348.11c31.54-6.48 51.88-37.49 45.44-69.26-6.44-31.78-37.23-52.29-68.77-45.81-31.53 6.48-51.88 37.49-45.43 69.27 6.44 31.77 37.23 52.28 68.76 45.8Z"/>
    <path fill="#839CC9" d="m116.24 291.12 40.56 42.13a58.04 58.04 0 0 1-24.56 14.32 57.64 57.64 0 0 1-28.35.9 57.96 57.96 0 0 1-25.4-12.75 58.7 58.7 0 0 1-16.4-23.35 59.22 59.22 0 0 1 6.68-55.12 58.32 58.32 0 0 1 21.5-18.66 57.72 57.72 0 0 1 27.7-6.18l-1.73 58.71Z"/>
    <path fill="#fff" d="m116.12 291.1 40.68 42.11a58.3 58.3 0 0 1-21.88 13.48 58 58 0 0 1-25.51 2.74l6.71-58.33Z" opacity=".5"/>
    <path fill="#9494DB" d="m116.27 291.1 50.63 29.44a57.41 57.41 0 0 1-9.3 12.2 58.66 58.66 0 0 1-41.33 17.08 58.66 58.66 0 0 1-41.34-17.08 60.41 60.41 0 0 1-5.92-6.96l47.25-34.68Z" opacity=".4"/>
    <path fill="#F1F4F9" d="M94.38 313.2a31.54 31.54 0 0 1-6.68-34.11 31.27 31.27 0 0 1 11.45-14.04 30.91 30.91 0 0 1 34.5 0 31.23 31.23 0 0 1 11.45 14.04 31.53 31.53 0 0 1-6.68 34.11 31.06 31.06 0 0 1-22.02 9.22 30.87 30.87 0 0 1-22.02-9.22Z"/>
    <path fill="#9494DB" d="M226.15 352.81h-40.8c-.15 0-.3-.2-.4-.57a4.74 4.74 0 0 1-.18-1.39c0-.52.06-1.01.17-1.38.1-.37.26-.57.4-.57h40.8c.16 0 .3.2.42.57a5.47 5.47 0 0 1 0 2.77c-.11.37-.26.57-.41.57Zm-6.99 13.31h-33.81c-.16 0-.3-.2-.41-.57a5.56 5.56 0 0 1 0-2.77c.1-.37.25-.57.4-.57h33.82c.15 0 .3.2.4.57a5.6 5.6 0 0 1 .01 2.77c-.11.36-.26.57-.41.57Zm13.98 14.09h-47.8c-.14 0-.3-.2-.4-.57a5.53 5.53 0 0 1 0-2.77c.1-.37.26-.57.4-.57h47.8c.15 0 .3.2.4.57.12.37.18.87.18 1.38 0 .52-.06 1.02-.17 1.39-.11.37-.26.57-.41.57Zm-6.99 13.31h-40.8c-.15 0-.3-.2-.4-.57a4.74 4.74 0 0 1-.18-1.39c0-.51.06-1.01.17-1.38.1-.37.26-.57.4-.57h40.8c.16 0 .3.2.42.57a5.53 5.53 0 0 1 0 2.77c-.11.37-.26.57-.41.57Zm2.33 14.09h-43.13c-.15 0-.3-.2-.4-.57a5.1 5.1 0 0 1-.18-1.39c0-.51.06-1.01.17-1.38.1-.37.26-.57.4-.57h43.14c.15 0 .3.2.4.57.12.37.18.87.18 1.38a5.1 5.1 0 0 1-.17 1.39c-.11.37-.26.57-.41.57Z"/>
    <path fill="#2D9AFF" d="M175.45 344.98h-8.55v8.61h8.55V345Z"/>
    <path fill="#263238" d="M175.45 359.07h-8.55v7.83h8.55v-7.83Z"/>
    <path fill="#8A99D1" d="M175.45 372.38h-8.55V381h8.55v-8.62Z"/>
    <path fill="#407BFF" d="M175.45 386.48h-8.55v7.82h8.55v-7.82Zm0 13.3h-8.55v8.62h8.55v-8.62Z"/>
    <path fill="#839CC9" d="M175.45 359.07h-8.55v7.83h8.55v-7.83Z"/>
    <path fill="#AFB6E1" d="M175.45 386.48h-8.55v7.82h8.55v-7.82Z" opacity=".4"/>
    <path fill="#D4DDED" d="M175.45 399.78h-8.55v8.62h8.55v-8.62Z" opacity=".6"/>
  </g>
  <g filter="url(#h)">
    <rect width="87" height="87" x="331" y="279" fill="#FBFCFD" rx="12"/>
    <path fill="#2D9AFF" d="M374.24 296.12c-5.41 0-10.6 2.16-14.43 6a20.54 20.54 0 0 0-5.98 14.5v4.1h4.09a4.07 4.07 0 0 1 4.08 4.09v12.6a4.1 4.1 0 0 1-4.08 4.1h-4.09a4.07 4.07 0 0 1-4.08-4.1v-20.8a24.69 24.69 0 0 1 7.18-17.38 24.47 24.47 0 0 1 26.68-5.33 24.47 24.47 0 0 1 13.25 13.3 24.69 24.69 0 0 1 1.86 9.41v24.6a10.18 10.18 0 0 1-10.2 10.25h-8.7a4.1 4.1 0 0 1-3.54 2.04h-4.08a4.08 4.08 0 0 1-4.08-4.1 4.1 4.1 0 0 1 4.08-4.1h4.08a4.06 4.06 0 0 1 3.53 2.05h8.71a6.1 6.1 0 0 0 6.12-6.15h-4.08a4.07 4.07 0 0 1-4.08-4.1v-12.3a4.1 4.1 0 0 1 4.08-4.09h4.08v-4.1a20.56 20.56 0 0 0-12.6-18.93 20.33 20.33 0 0 0-7.8-1.56Z"/>
    <path fill="#2D9AFF" fill-rule="evenodd" d="M374.24 297.69c-5 0-9.79 1.99-13.32 5.54a18.98 18.98 0 0 0-5.52 13.38v2.54h2.52a5.63 5.63 0 0 1 5.64 5.66v12.6a5.67 5.67 0 0 1-5.64 5.67h-4.09a5.63 5.63 0 0 1-5.64-5.66v-20.8a26.26 26.26 0 0 1 7.63-18.5 26.03 26.03 0 0 1 28.39-5.67 26.02 26.02 0 0 1 14.1 14.16 26.24 26.24 0 0 1 1.98 10v24.6a11.8 11.8 0 0 1-3.45 8.34 11.74 11.74 0 0 1-8.32 3.46h-7.9a5.65 5.65 0 0 1-4.34 2.05h-4.08a5.63 5.63 0 0 1-5.64-5.66 5.67 5.67 0 0 1 5.64-5.66h4.08a5.63 5.63 0 0 1 4.35 2.05h7.9a4.55 4.55 0 0 0 4.28-3.03h-2.25a5.64 5.64 0 0 1-5.64-5.66v-12.3a5.67 5.67 0 0 1 5.64-5.65h2.52v-2.54a19.01 19.01 0 0 0-5.52-13.38 18.84 18.84 0 0 0-13.32-5.55Zm20.4 18.92a20.56 20.56 0 0 0-12.6-18.93 20.33 20.33 0 0 0-22.23 4.44 20.54 20.54 0 0 0-5.98 14.5v4.1h4.09a4.07 4.07 0 0 1 4.08 4.09v12.6a4.1 4.1 0 0 1-4.08 4.1h-4.09a4.07 4.07 0 0 1-4.08-4.1v-20.8a24.69 24.69 0 0 1 7.18-17.38 24.47 24.47 0 0 1 26.68-5.33 24.47 24.47 0 0 1 13.25 13.3 24.69 24.69 0 0 1 1.86 9.41v24.6a10.18 10.18 0 0 1-10.2 10.25h-8.7a4.1 4.1 0 0 1-3.54 2.04h-4.08a4.08 4.08 0 0 1-4.08-4.1 4.1 4.1 0 0 1 4.08-4.1h4.08a4.06 4.06 0 0 1 3.53 2.05h8.71a6.1 6.1 0 0 0 6.12-6.15h-4.08a4.07 4.07 0 0 1-4.08-4.1v-12.3a4.1 4.1 0 0 1 4.08-4.09h4.08v-4.1Z" clip-rule="evenodd"/>
    <path fill="#B5C3DE" d="M355.48 319.11c4.6 0 8.34 3.74 8.34 8.34v7.3c0 4.6-3.73 8.33-8.34 8.33V319.1Z"/>
    <path fill="#9494DB" d="M371.63 355.06a5.73 5.73 0 0 1 0-11.46h3.65a5.73 5.73 0 0 1 0 11.46h-3.64Z"/>
    <path fill="#B5C3DE" d="M393 343.08a8.34 8.34 0 0 1-8.34-8.34v-7.3c0-4.6 3.73-8.33 8.33-8.33v23.97Z"/>
  </g>
  <g filter="url(#i)">
    <rect width="214" height="214" x="581" y="141" fill="#FBFCFD" rx="12"/>
    <path fill="#2D9AFF" d="M755.76 313.4a8.25 8.25 0 0 1-11.67 0L641.34 210.5a2 2 0 0 1 0-2.83l8.82-8.84a2 2 0 0 1 2.83 0l102.77 102.92a8.25 8.25 0 0 1 0 11.65Z"/>
    <path fill="#7777F8" d="M755.77 313.39a11.1 11.1 0 0 1-15.72-.01l-35.33-35.47a1.22 1.22 0 0 1 0-1.72l13.96-13.98a1.23 1.23 0 0 1 1.73 0l35.37 35.5a11.1 11.1 0 0 1-.01 15.68Z"/>
    <path fill="#B5C3DE" d="m679.86 179.92-58.26 57.86 38.96 39.45 58.25-58.29-38.95-39.02Z"/>
    <path fill="#D4DDED" d="M704.32 310.5H621.1a8.34 8.34 0 1 0 0 16.67h83.22a8.34 8.34 0 1 0 0-16.67Z"/>
    <path fill="#7777F8" d="m627.12 224.3-13.3 13.63a3 3 0 0 0 .03 4.21l42.81 42.88a3 3 0 0 0 4.25 0l13.64-13.67a3 3 0 0 0 0-4.24l-43.17-42.85a3 3 0 0 0-4.26.03Zm53.26-53.03-13.61 13.32a3 3 0 0 0-.04 4.25l42.78 43.23a3 3 0 0 0 4.26 0l13.65-13.66a3 3 0 0 0 0-4.24L684.6 171.3a3 3 0 0 0-4.22-.02Z"/>
  </g>
  <g filter="url(#j)">
    <g clip-path="url(#k)">
      <rect width="104" height="104" x="184" y="68" fill="#FBFCFD" rx="12"/>
      <path fill="#9494DB" d="M260.77 129.63a5.22 5.22 0 0 1-7.43.03l-16.91-16.96a7.75 7.75 0 0 1 0-10.94l16.9-16.97a5.22 5.22 0 1 1 7.4 7.37l-9.8 9.83h37.45v10.47h-37.44l9.8 9.83a5.22 5.22 0 0 1 .03 7.34Z"/>
      <path fill="#2D9AFF" d="m221.28 137.66-9.8 9.83a5.22 5.22 0 1 0 7.4 7.37l16.9-16.96a7.75 7.75 0 0 0 0-10.94l-16.9-16.97a5.22 5.22 0 0 0-7.4 7.38l9.8 9.82h-37.45v10.47h37.44Z"/>
    </g>
  </g>
  <g filter="url(#l)">
    <g clip-path="url(#m)">
      <rect width="170" height="170" x="353" y="31" fill="#FBFCFD" rx="20"/>
      <path fill="#9494DB" d="M466.01 170.99c29.81-7.1 48.28-37.25 41.24-67.34-7.03-30.09-36.9-48.72-66.72-41.62-29.81 7.1-48.28 37.25-41.24 67.34 7.03 30.08 36.9 48.72 66.72 41.62Z"/>
      <path fill="#D4DDED" d="M460.53 161.72c24.69-4.06 41.46-27.58 37.45-52.55C493.97 84.2 470.7 67.25 446 71.3c-24.69 4.05-41.45 27.58-37.45 52.55 4.01 24.97 27.28 41.92 51.97 37.87Z"/>
      <path fill="#2D9AFF" d="M457.3 112.56V86.42c0-1.12-.44-2.18-1.22-2.97a4.14 4.14 0 0 0-7.1 2.97v33.27a4.23 4.23 0 0 0 2.04 3.6c.62.38 2.1.6 2.1.6.66.01 1.32-.13 1.93-.41l.07-.03 21.92-12.52h.01a4.19 4.19 0 0 0 1.54-5.7 4.16 4.16 0 0 0-5.65-1.6l-15.64 8.93Z"/>
      <rect width="75.67" height="21.14" x="316.35" y="69.68" fill="#B5C3DE" rx="10.57"/>
      <rect width="74.56" height="21.14" x="312.28" y="105.29" fill="#D4DDED" rx="10.57"/>
      <rect width="74.56" height="21.14" x="307.19" y="140.9" fill="#B5C3DE" rx="10.57"/>
    </g>
  </g>
  <defs>
    <filter id="a" width="736.2" height="519.15" x="140.92" y="262.92" color-interpolation-filters="sRGB" filterUnits="userSpaceOnUse">
      <feFlood flood-opacity="0" result="BackgroundImageFix"/>
      <feColorMatrix in="SourceAlpha" result="hardAlpha" values="0 0 0 0 0 0 0 0 0 0 0 0 0 0 0 0 0 0 127 0"/>
      <feOffset/>
      <feGaussianBlur stdDeviation="24.54"/>
      <feComposite in2="hardAlpha" operator="out"/>
      <feColorMatrix values="0 0 0 0 0.423529 0 0 0 0 0.388235 0 0 0 0 1 0 0 0 0.2 0"/>
      <feBlend in2="BackgroundImageFix" result="effect1_dropShadow_682_2257"/>
      <feBlend in="SourceGraphic" in2="effect1_dropShadow_682_2257" result="shape"/>
    </filter>
    <filter id="b" width="758.04" height="492.44" x="130" y="252" color-interpolation-filters="sRGB" filterUnits="userSpaceOnUse">
      <feFlood flood-opacity="0" result="BackgroundImageFix"/>
      <feGaussianBlur in="BackgroundImageFix" stdDeviation="30"/>
      <feComposite in2="SourceAlpha" operator="in" result="effect1_backgroundBlur_682_2257"/>
      <feBlend in="SourceGraphic" in2="effect1_backgroundBlur_682_2257" result="shape"/>
    </filter>
    <filter id="c" width="668.46" height="398.25" x="179.6" y="317.6" color-interpolation-filters="sRGB" filterUnits="userSpaceOnUse">
      <feFlood flood-opacity="0" result="BackgroundImageFix"/>
      <feColorMatrix in="SourceAlpha" result="hardAlpha" values="0 0 0 0 0 0 0 0 0 0 0 0 0 0 0 0 0 0 127 0"/>
      <feOffset dy="13.91"/>
      <feGaussianBlur stdDeviation="24.54"/>
      <feComposite in2="hardAlpha" operator="out"/>
      <feColorMatrix values="0 0 0 0 0.423529 0 0 0 0 0.388235 0 0 0 0 1 0 0 0 0.2 0"/>
      <feBlend in2="BackgroundImageFix" result="effect1_dropShadow_682_2257"/>
      <feBlend in="SourceGraphic" in2="effect1_dropShadow_682_2257" result="shape"/>
    </filter>
    <filter id="d" width="211.12" height="167.36" x="413.76" y="415.51" color-interpolation-filters="sRGB" filterUnits="userSpaceOnUse">
      <feFlood flood-opacity="0" result="BackgroundImageFix"/>
      <feColorMatrix in="SourceAlpha" result="hardAlpha" values="0 0 0 0 0 0 0 0 0 0 0 0 0 0 0 0 0 0 127 0"/>
      <feOffset dy="13.91"/>
      <feGaussianBlur stdDeviation="24.54"/>
      <feComposite in2="hardAlpha" operator="out"/>
      <feColorMatrix values="0 0 0 0 0.423529 0 0 0 0 0.388235 0 0 0 0 1 0 0 0 0.2 0"/>
      <feBlend in2="BackgroundImageFix" result="effect1_dropShadow_682_2257"/>
      <feBlend in="SourceGraphic" in2="effect1_dropShadow_682_2257" result="shape"/>
    </filter>
    <filter id="e" width="213.03" height="213.03" x="91.49" y="467.55" color-interpolation-filters="sRGB" filterUnits="userSpaceOnUse">
      <feFlood flood-opacity="0" result="BackgroundImageFix"/>
      <feColorMatrix in="SourceAlpha" result="hardAlpha" values="0 0 0 0 0 0 0 0 0 0 0 0 0 0 0 0 0 0 127 0"/>
      <feOffset dy="10.06"/>
      <feGaussianBlur stdDeviation="17.76"/>
      <feComposite in2="hardAlpha" operator="out"/>
      <feColorMatrix values="0 0 0 0 0.423529 0 0 0 0 0.388235 0 0 0 0 1 0 0 0 0.2 0"/>
      <feBlend in2="BackgroundImageFix" result="effect1_dropShadow_682_2257"/>
      <feBlend in="SourceGraphic" in2="effect1_dropShadow_682_2257" result="shape"/>
    </filter>
    <filter id="g" width="294.51" height="294.51" x=".75" y="185.72" color-interpolation-filters="sRGB" filterUnits="userSpaceOnUse">
      <feFlood flood-opacity="0" result="BackgroundImageFix"/>
      <feColorMatrix in="SourceAlpha" result="hardAlpha" values="0 0 0 0 0 0 0 0 0 0 0 0 0 0 0 0 0 0 127 0"/>
      <feOffset dy="11.97"/>
      <feGaussianBlur stdDeviation="21.13"/>
      <feComposite in2="hardAlpha" operator="out"/>
      <feColorMatrix values="0 0 0 0 0.423529 0 0 0 0 0.388235 0 0 0 0 1 0 0 0 0.2 0"/>
      <feBlend in2="BackgroundImageFix" result="effect1_dropShadow_682_2257"/>
      <feBlend in="SourceGraphic" in2="effect1_dropShadow_682_2257" result="shape"/>
    </filter>
    <filter id="h" width="171.51" height="171.51" x="288.75" y="248.72" color-interpolation-filters="sRGB" filterUnits="userSpaceOnUse">
      <feFlood flood-opacity="0" result="BackgroundImageFix"/>
      <feColorMatrix in="SourceAlpha" result="hardAlpha" values="0 0 0 0 0 0 0 0 0 0 0 0 0 0 0 0 0 0 127 0"/>
      <feOffset dy="11.97"/>
      <feGaussianBlur stdDeviation="21.13"/>
      <feComposite in2="hardAlpha" operator="out"/>
      <feColorMatrix values="0 0 0 0 0.423529 0 0 0 0 0.388235 0 0 0 0 1 0 0 0 0.2 0"/>
      <feBlend in2="BackgroundImageFix" result="effect1_dropShadow_682_2257"/>
      <feBlend in="SourceGraphic" in2="effect1_dropShadow_682_2257" result="shape"/>
    </filter>
    <filter id="i" width="298.51" height="298.51" x="538.75" y="110.72" color-interpolation-filters="sRGB" filterUnits="userSpaceOnUse">
      <feFlood flood-opacity="0" result="BackgroundImageFix"/>
      <feColorMatrix in="SourceAlpha" result="hardAlpha" values="0 0 0 0 0 0 0 0 0 0 0 0 0 0 0 0 0 0 127 0"/>
      <feOffset dy="11.97"/>
      <feGaussianBlur stdDeviation="21.13"/>
      <feComposite in2="hardAlpha" operator="out"/>
      <feColorMatrix values="0 0 0 0 0.423529 0 0 0 0 0.388235 0 0 0 0 1 0 0 0 0.2 0"/>
      <feBlend in2="BackgroundImageFix" result="effect1_dropShadow_682_2257"/>
      <feBlend in="SourceGraphic" in2="effect1_dropShadow_682_2257" result="shape"/>
    </filter>
    <filter id="j" width="188.51" height="188.51" x="141.75" y="37.72" color-interpolation-filters="sRGB" filterUnits="userSpaceOnUse">
      <feFlood flood-opacity="0" result="BackgroundImageFix"/>
      <feColorMatrix in="SourceAlpha" result="hardAlpha" values="0 0 0 0 0 0 0 0 0 0 0 0 0 0 0 0 0 0 127 0"/>
      <feOffset dy="11.97"/>
      <feGaussianBlur stdDeviation="21.13"/>
      <feComposite in2="hardAlpha" operator="out"/>
      <feColorMatrix values="0 0 0 0 0.423529 0 0 0 0 0.388235 0 0 0 0 1 0 0 0 0.2 0"/>
      <feBlend in2="BackgroundImageFix" result="effect1_dropShadow_682_2257"/>
      <feBlend in="SourceGraphic" in2="effect1_dropShadow_682_2257" result="shape"/>
    </filter>
    <filter id="l" width="254.51" height="254.51" x="310.75" y=".72" color-interpolation-filters="sRGB" filterUnits="userSpaceOnUse">
      <feFlood flood-opacity="0" result="BackgroundImageFix"/>
      <feColorMatrix in="SourceAlpha" result="hardAlpha" values="0 0 0 0 0 0 0 0 0 0 0 0 0 0 0 0 0 0 127 0"/>
      <feOffset dy="11.97"/>
      <feGaussianBlur stdDeviation="21.13"/>
      <feComposite in2="hardAlpha" operator="out"/>
      <feColorMatrix values="0 0 0 0 0.423529 0 0 0 0 0.388235 0 0 0 0 1 0 0 0 0.2 0"/>
      <feBlend in2="BackgroundImageFix" result="effect1_dropShadow_682_2257"/>
      <feBlend in="SourceGraphic" in2="effect1_dropShadow_682_2257" result="shape"/>
    </filter>
    <clipPath id="f">
      <rect width="142" height="142" x="127" y="493" fill="#fff" rx="23.68"/>
    </clipPath>
    <clipPath id="k">
      <rect width="104" height="104" x="184" y="68" fill="#fff" rx="12"/>
    </clipPath>
    <clipPath id="m">
      <rect width="170" height="170" x="353" y="31" fill="#fff" rx="20"/>
    </clipPath>
  </defs>
</svg>
