<svg width="60" height="62" viewBox="0 0 60 62" fill="none" xmlns="http://www.w3.org/2000/svg">
<circle cx="44.5" cy="46.5" r="15.5" fill="#66DAFF" fill-opacity="0.6"/>
<path d="M25 40.2727C27.8409 40.2727 30.2557 39.2784 32.2443 37.2898C34.233 35.3011 35.2273 32.8864 35.2273 30.0455C35.2273 27.2045 34.233 24.7898 32.2443 22.8011C30.2557 20.8125 27.8409 19.8182 25 19.8182C22.1591 19.8182 19.7443 20.8125 17.7557 22.8011C15.767 24.7898 14.7727 27.2045 14.7727 30.0455C14.7727 32.8864 15.767 35.3011 17.7557 37.2898C19.7443 39.2784 22.1591 40.2727 25 40.2727ZM25 36.1818C23.2955 36.1818 21.8466 35.5852 20.6534 34.392C19.4602 33.1989 18.8636 31.75 18.8636 30.0455C18.8636 28.3409 19.4602 26.892 20.6534 25.6989C21.8466 24.5057 23.2955 23.9091 25 23.9091C26.7045 23.9091 28.1534 24.5057 29.3466 25.6989C30.5398 26.892 31.1364 28.3409 31.1364 30.0455C31.1364 31.75 30.5398 33.1989 29.3466 34.392C28.1534 35.5852 26.7045 36.1818 25 36.1818ZM25 47.0909C19.4697 47.0909 14.4318 45.5473 9.88636 42.4602C5.34091 39.3731 2.04545 35.2348 0 30.0455C2.04545 24.8561 5.34091 20.7178 9.88636 17.6307C14.4318 14.5436 19.4697 13 25 13C30.5303 13 35.5682 14.5436 40.1136 17.6307C44.6591 20.7178 47.9545 24.8561 50 30.0455C47.9545 35.2348 44.6591 39.3731 40.1136 42.4602C35.5682 45.5473 30.5303 47.0909 25 47.0909ZM25 42.5455C29.2803 42.5455 33.2102 41.4186 36.7898 39.1648C40.3693 36.911 43.1061 33.8712 45 30.0455C43.1061 26.2197 40.3693 23.1799 36.7898 20.9261C33.2102 18.6723 29.2803 17.5455 25 17.5455C20.7197 17.5455 16.7898 18.6723 13.2102 20.9261C9.63068 23.1799 6.89394 26.2197 5 30.0455C6.89394 33.8712 9.63068 36.911 13.2102 39.1648C16.7898 41.4186 20.7197 42.5455 25 42.5455Z" fill="#2D9AFF"/>
</svg>
