<svg width="52" height="62" viewBox="0 0 52 62" fill="none" xmlns="http://www.w3.org/2000/svg">
<g id="Frame 60">
<circle id="Ellipse 1" cx="36.5" cy="46.5" r="15.5" fill="#66DAFF" fill-opacity="0.6"/>
<path id="timer" d="M14.2857 4.7619V0H28.5714V4.7619H14.2857ZM19.0476 30.9524H23.8095V16.6667H19.0476V30.9524ZM21.4286 50C18.4921 50 15.7242 49.4345 13.125 48.3036C10.5258 47.1726 8.25397 45.6349 6.30952 43.6905C4.36508 41.746 2.82738 39.4742 1.69643 36.875C0.565476 34.2758 0 31.5079 0 28.5714C0 25.6349 0.565476 22.8671 1.69643 20.2679C2.82738 17.6686 4.36508 15.3968 6.30952 13.4524C8.25397 11.5079 10.5258 9.97024 13.125 8.83929C15.7242 7.70833 18.4921 7.14286 21.4286 7.14286C23.8889 7.14286 26.25 7.53968 28.5119 8.33333C30.7738 9.12698 32.8968 10.2778 34.881 11.7857L38.2143 8.45238L41.5476 11.7857L38.2143 15.119C39.7222 17.1032 40.873 19.2262 41.6667 21.4881C42.4603 23.75 42.8571 26.1111 42.8571 28.5714C42.8571 31.5079 42.2917 34.2758 41.1607 36.875C40.0298 39.4742 38.4921 41.746 36.5476 43.6905C34.6032 45.6349 32.3313 47.1726 29.7321 48.3036C27.1329 49.4345 24.3651 50 21.4286 50ZM21.4286 45.2381C26.0317 45.2381 29.9603 43.6111 33.2143 40.3571C36.4683 37.1032 38.0952 33.1746 38.0952 28.5714C38.0952 23.9683 36.4683 20.0397 33.2143 16.7857C29.9603 13.5317 26.0317 11.9048 21.4286 11.9048C16.8254 11.9048 12.8968 13.5317 9.64286 16.7857C6.38889 20.0397 4.7619 23.9683 4.7619 28.5714C4.7619 33.1746 6.38889 37.1032 9.64286 40.3571C12.8968 43.6111 16.8254 45.2381 21.4286 45.2381Z" fill="#7777F8"/>
</g>
</svg>
