<svg xmlns="http://www.w3.org/2000/svg" fill="none" viewBox="0 0 304 168">
  <path fill="#58595B" d="M25.97 136.29c2.38 2.23 3.57 5.52 3.57 9.89v21.14h-4.41V162a10.56 10.56 0 0 1-4.57 4.15c-2.01.99-4.4 1.49-7.17 1.49-3.8 0-6.83-.91-9.08-2.72a8.8 8.8 0 0 1-3.37-7.2 8.61 8.61 0 0 1 3.14-7c2.1-1.77 5.44-2.66 10.02-2.66h10.83v-2.08c0-2.94-.82-5.18-2.46-6.71-1.64-1.53-4.04-2.3-7.2-2.3-2.16 0-4.24.36-6.23 1.07a15.6 15.6 0 0 0-5.12 2.95l-2.08-3.44c1.73-1.47 3.8-2.6 6.23-3.4 2.42-.8 4.97-1.2 7.65-1.2 4.45 0 7.87 1.11 10.25 3.34Zm-5.19 25.94a10.66 10.66 0 0 0 4.15-5.16v-5.58h-10.7c-5.84 0-8.75 2.03-8.75 6.1 0 1.99.76 3.56 2.27 4.7 1.51 1.15 3.63 1.72 6.35 1.72 2.72 0 4.82-.59 6.68-1.78Z"/>
  <path fill="#58595B" d="M76.94 133.21v34.11h-4.4v-6.23a12.6 12.6 0 0 1-5 4.83 14.98 14.98 0 0 1-7.26 1.72c-4.45 0-7.97-1.24-10.54-3.73-2.57-2.49-3.86-6.13-3.86-10.93V133.2h4.6v19.32c0 3.59.9 6.31 2.66 8.17 1.77 1.86 4.3 2.79 7.6 2.79 3.58 0 6.41-1.09 8.48-3.27 2.08-2.18 3.11-5.22 3.11-9.11v-17.9h4.6l.01.01Z"/>
  <path fill="#58595B" d="M99.08 165.44a15.99 15.99 0 0 1-6.26-6.19 17.86 17.86 0 0 1-2.27-8.98c0-3.33.76-6.31 2.27-8.95a15.98 15.98 0 0 1 6.26-6.16 18.38 18.38 0 0 1 9.05-2.2c2.94 0 5.57.57 7.88 1.72a13.1 13.1 0 0 1 5.48 5.03l-3.44 2.33a10.66 10.66 0 0 0-4.28-3.79 12.74 12.74 0 0 0-5.64-1.26c-2.46 0-4.68.55-6.65 1.65a11.57 11.57 0 0 0-4.6 4.7 14.32 14.32 0 0 0-1.65 6.94c0 2.6.55 4.96 1.65 6.97a11.68 11.68 0 0 0 4.6 4.67 13.39 13.39 0 0 0 6.65 1.65 13 13 0 0 0 5.64-1.23 10.51 10.51 0 0 0 4.28-3.76l3.44 2.33a13.13 13.13 0 0 1-5.5 5.03 17.5 17.5 0 0 1-7.86 1.72 18.3 18.3 0 0 1-9.05-2.21v-.01Z"/>
  <path fill="#58595B" d="M152.61 165.24a8.6 8.6 0 0 1-3.21 1.78c-1.28.41-2.6.62-3.99.62-3.2 0-5.66-.86-7.39-2.59-1.73-1.73-2.59-4.17-2.59-7.33V137.1h-6.1v-3.89h6.1v-7.46h4.6v7.46h10.38v3.89h-10.38v20.36c0 2.03.51 3.58 1.52 4.64 1.01 1.06 2.47 1.59 4.38 1.59.95 0 1.87-.15 2.76-.45.89-.3 1.65-.73 2.3-1.3l1.62 3.31v-.01Z"/>
  <path fill="#58595B" d="M165.06 124.78a3.18 3.18 0 0 1-.97-2.33c0-.9.32-1.62.97-2.27a3.26 3.26 0 0 1 2.4-.97c.95 0 1.75.31 2.4.94a3 3 0 0 1 .97 2.24c0 .95-.32 1.75-.97 2.4-.65.65-1.45.97-2.4.97s-1.75-.32-2.4-.97v-.01Zm.06 8.43h4.6v34.11h-4.6v-34.11Z"/>
  <path fill="#58595B" d="M191.78 165.41a16.39 16.39 0 0 1-6.23-6.19 17.7 17.7 0 0 1-2.27-8.95c0-3.33.76-6.31 2.27-8.95a16.04 16.04 0 0 1 6.23-6.16c2.64-1.47 5.6-2.2 8.88-2.2 3.28 0 6.25.74 8.88 2.2a15.8 15.8 0 0 1 6.19 6.16 17.88 17.88 0 0 1 2.24 8.95c0 3.33-.75 6.31-2.24 8.95a16.08 16.08 0 0 1-6.19 6.19 17.75 17.75 0 0 1-8.88 2.24c-3.28 0-6.25-.75-8.88-2.24Zm15.4-3.5a11.55 11.55 0 0 0 4.51-4.7 14.57 14.57 0 0 0 1.62-6.94c0-2.59-.54-4.91-1.62-6.94a11.48 11.48 0 0 0-4.51-4.7 12.9 12.9 0 0 0-6.52-1.65c-2.42 0-4.59.55-6.52 1.65a11.75 11.75 0 0 0-4.54 4.7 14.32 14.32 0 0 0-1.65 6.94c0 2.6.55 4.91 1.65 6.94 1.1 2.03 2.61 3.6 4.54 4.7a12.9 12.9 0 0 0 6.52 1.65c2.42 0 4.59-.55 6.52-1.65Z"/>
  <path fill="#58595B" d="M259.12 136.68c2.53 2.49 3.79 6.11 3.79 10.86v19.78h-4.6V148c0-3.54-.89-6.25-2.66-8.11-1.77-1.86-4.3-2.79-7.59-2.79-3.68 0-6.58 1.09-8.72 3.28-2.14 2.18-3.21 5.2-3.21 9.05v17.9h-4.6v-34.11h4.41v6.29a12.7 12.7 0 0 1 5.22-4.83 16.67 16.67 0 0 1 7.75-1.72c4.28 0 7.68 1.24 10.21 3.73v-.01Z"/>
  <path fill="#58595B" d="M280.77 166.44c-2.53-.8-4.5-1.8-5.93-3.02l2.08-3.63a17.76 17.76 0 0 0 5.38 2.76c2.16.71 4.41 1.07 6.74 1.07 3.11 0 5.41-.49 6.91-1.46a4.64 4.64 0 0 0 2.24-4.12 3.7 3.7 0 0 0-1.23-2.95 8.27 8.27 0 0 0-3.1-1.62 44.75 44.75 0 0 0-5-1.07 57.6 57.6 0 0 1-6.68-1.59 9.77 9.77 0 0 1-4.3-2.76c-1.2-1.3-1.79-3.09-1.79-5.38a8.42 8.42 0 0 1 3.57-7c2.38-1.82 5.68-2.72 9.92-2.72 2.21 0 4.41.29 6.61.88a18.5 18.5 0 0 1 5.45 2.3l-2 3.7a17.24 17.24 0 0 0-10.06-2.92c-2.94 0-5.15.52-6.65 1.56a4.78 4.78 0 0 0-2.24 4.09c0 1.3.42 2.33 1.26 3.11a7.75 7.75 0 0 0 3.15 1.72c1.25.37 2.98.75 5.2 1.13 2.71.52 4.9 1.04 6.54 1.56a9.72 9.72 0 0 1 4.22 2.66c1.17 1.25 1.75 2.98 1.75 5.19a8.24 8.24 0 0 1-3.73 7.1c-2.49 1.75-5.93 2.63-10.34 2.63-2.77 0-5.4-.4-7.94-1.2l-.03-.02Z"/>
  <path fill="#1F4386" d="M95.31 18.8v10.52H18.79v31.7h59.1v10.52h-59.1v31.3h76.52v10.52H.74V18.79h94.57v.01Z"/>
  <path fill="#1F4386" d="M209.33 18.8v10.52h76.52v31.7h-59.1v10.52h59.1v31.3h-76.52v10.52h94.57V18.79h-94.57v.01Z"/>
  <path fill="#1F4386" d="m175.68 53.92 33.65-35.12-23.8.31-21.3 22.84 11.45 11.97Z"/>
  <path fill="#1F4386" d="M163.98 66.61 118.33 18.8H95.14l44.94 48.1-44.12 46.47h23.54l44.48-46.76Z"/>
  <path fill="#1F4386" d="m207.26 111.85-31.47-33.2-12.14 12.63 21.18 22.09h23.84l-1.35-1.52h-.06Z"/>
</svg>
