<svg width="60" height="62" viewBox="0 0 60 62" fill="none" xmlns="http://www.w3.org/2000/svg">
<g id="Frame 61">
<circle id="Ellipse 1" cx="44.5" cy="46.5" r="15.5" fill="#66DAFF" fill-opacity="0.6"/>
<path id="broken_image" d="M5.55556 50C4.02778 50 2.71991 49.456 1.63194 48.3681C0.543981 47.2801 0 45.9722 0 44.4444V5.55556C0 4.02778 0.543981 2.71991 1.63194 1.63194C2.71991 0.543981 4.02778 0 5.55556 0H44.4444C45.9722 0 47.2801 0.543981 48.3681 1.63194C49.456 2.71991 50 4.02778 50 5.55556V44.4444C50 45.9722 49.456 47.2801 48.3681 48.3681C47.2801 49.456 45.9722 50 44.4444 50H5.55556ZM8.33333 26.5972L19.4444 15.4861L30.5556 26.5972L41.6667 15.4861L44.4444 18.2639V5.55556H5.55556V23.8194L8.33333 26.5972ZM5.55556 44.4444H44.4444V26.1111L41.6667 23.3333L30.5556 34.4444L19.4444 23.3333L8.33333 34.4444L5.55556 31.6667V44.4444ZM5.55556 44.4444V26.1111V31.6667V5.55556V44.4444Z" fill="#7777F8"/>
</g>
</svg>
