<svg width="180" height="150" viewBox="0 0 180 150" fill="none" xmlns="http://www.w3.org/2000/svg">
<g id="Frame 96">
<ellipse id="Ellipse 1" cx="45.5" cy="104.5" rx="45" ry="45.5" fill="#66DAFF" fill-opacity="0.6"/>
<g id="attach_email">
<path d="M95.6518 62.3639L40.9003 28.1584V96.5694H109.34V110.252H40.9003C37.1361 110.252 33.9138 108.912 31.2332 106.232C28.5527 103.553 27.2124 100.332 27.2124 96.5694V14.4762C27.2124 10.7135 28.5527 7.49253 31.2332 4.81309C33.9138 2.13366 37.1361 0.793945 40.9003 0.793945H150.403C154.168 0.793945 157.39 2.13366 160.07 4.81309C162.751 7.49253 164.091 10.7135 164.091 14.4762V48.6817H150.403V28.1584L95.6518 62.3639ZM95.6518 48.6817L150.403 14.4762H40.9003L95.6518 48.6817ZM40.9003 28.1584V14.4762V96.5694V28.1584Z" fill="#7777F8"/>
<path d="M148.091 118.206C139.508 118.206 132.246 116.884 126.305 114.242C120.365 111.6 117.395 108.376 117.395 104.569V70.4759C117.395 66.7257 120.394 63.5153 126.391 60.8448C132.388 58.1742 139.621 56.8389 148.091 56.8389C156.561 56.8389 163.794 58.1742 169.792 60.8448C175.789 63.5153 178.787 66.7257 178.787 70.4759V104.569C178.787 108.376 175.817 111.6 169.877 114.242C163.937 116.884 156.675 118.206 148.091 118.206ZM148.091 77.3797C153.15 77.3797 158.238 76.6552 163.354 75.2063C168.47 73.7573 171.341 72.209 171.966 70.5611C171.341 68.9133 168.484 67.3508 163.397 65.8734C158.309 64.3961 153.207 63.6574 148.091 63.6574C142.918 63.6574 137.845 64.3819 132.871 65.8308C127.897 67.2797 125.012 68.8565 124.216 70.5611C125.012 72.2658 127.897 73.8284 132.871 75.2489C137.845 76.6694 142.918 77.3797 148.091 77.3797ZM148.091 94.3407C150.479 94.3407 152.781 94.2271 154.998 93.9998C157.215 93.7725 159.332 93.4458 161.35 93.0197C163.368 92.5935 165.272 92.0679 167.063 91.4429C168.854 90.8178 170.488 90.1076 171.966 89.3121V79.0843C170.488 79.8798 168.854 80.5901 167.063 81.2151C165.272 81.8401 163.368 82.3657 161.35 82.7919C159.332 83.218 157.215 83.5447 154.998 83.772C152.781 83.9993 150.479 84.113 148.091 84.113C145.704 84.113 143.373 83.9993 141.099 83.772C138.825 83.5447 136.68 83.218 134.662 82.7919C132.644 82.3657 130.754 81.8401 128.991 81.2151C127.229 80.5901 125.637 79.8798 124.216 79.0843V89.3121C125.637 90.1076 127.229 90.8178 128.991 91.4429C130.754 92.0679 132.644 92.5935 134.662 93.0197C136.68 93.4458 138.825 93.7725 141.099 93.9998C143.373 94.2271 145.704 94.3407 148.091 94.3407ZM148.091 111.387C150.706 111.387 153.363 111.188 156.064 110.79C158.764 110.393 161.251 109.867 163.524 109.214C165.798 108.56 167.702 107.822 169.237 106.998C170.772 106.174 171.682 105.336 171.966 104.483V96.1306C170.488 96.9261 168.854 97.6364 167.063 98.2614C165.272 98.8864 163.368 99.412 161.35 99.8382C159.332 100.264 157.215 100.591 154.998 100.818C152.781 101.046 150.479 101.159 148.091 101.159C145.704 101.159 143.373 101.046 141.099 100.818C138.825 100.591 136.68 100.264 134.662 99.8382C132.644 99.412 130.754 98.8864 128.991 98.2614C127.229 97.6364 125.637 96.9261 124.216 96.1306V104.569C124.501 105.421 125.396 106.245 126.902 107.04C128.409 107.836 130.299 108.56 132.573 109.214C134.846 109.867 137.347 110.393 140.076 110.79C142.805 111.188 145.476 111.387 148.091 111.387Z" fill="#7777F8"/>
<path fill-rule="evenodd" clip-rule="evenodd" d="M148.091 119.206C139.41 119.206 132.001 117.87 125.899 115.156C119.873 112.475 116.395 109.002 116.395 104.569V70.4759C116.395 66.091 119.914 62.6344 125.984 59.9312C132.14 57.1896 139.52 55.8389 148.091 55.8389C156.662 55.8389 164.042 57.1896 170.198 59.9312C176.269 62.6344 179.787 66.091 179.787 70.4759V104.569C179.787 109.002 176.31 112.475 170.283 115.156C164.181 117.87 156.772 119.206 148.091 119.206ZM148.091 76.3797C153.054 76.3797 158.049 75.6692 163.081 74.2441C165.607 73.5288 167.525 72.803 168.869 72.0781C169.934 71.5038 170.534 70.9851 170.836 70.5604C170.534 70.1329 169.935 69.6106 168.875 69.0307C167.537 68.2991 165.629 67.5631 163.118 66.8337C158.117 65.3818 153.109 64.6574 148.091 64.6574C143.013 64.6574 138.034 65.3684 133.151 66.7909C130.698 67.5053 128.81 68.2378 127.456 68.9776C126.406 69.5517 125.754 70.0892 125.387 70.5608C125.754 71.0303 126.404 71.564 127.453 72.1323C128.806 72.865 130.693 73.587 133.146 74.2873C138.03 75.6824 143.011 76.3797 148.091 76.3797ZM124.216 70.5611C125.012 68.8565 127.897 67.2797 132.871 65.8308C137.845 64.3819 142.918 63.6574 148.091 63.6574C153.207 63.6574 158.309 64.3961 163.397 65.8734C168.484 67.3508 171.341 68.9133 171.966 70.5611C171.341 72.209 168.47 73.7573 163.354 75.2063C158.238 76.6552 153.15 77.3797 148.091 77.3797C142.918 77.3797 137.845 76.6694 132.871 75.2489C127.897 73.8284 125.012 72.2658 124.216 70.5611ZM148.091 93.3407C150.447 93.3407 152.715 93.2286 154.896 93.005C157.08 92.7811 159.163 92.4595 161.143 92.0412C163.123 91.6231 164.986 91.1086 166.733 90.4987C168.269 89.9629 169.679 89.3653 170.966 88.7074V80.7073C169.847 81.2347 168.655 81.7184 167.393 82.1592C165.558 82.7994 163.613 83.3361 161.557 83.7703C159.502 84.2043 157.349 84.5362 155.1 84.7668C152.847 84.9978 150.51 85.113 148.091 85.113C145.672 85.113 143.308 84.9978 141 84.7671C138.694 84.5366 136.512 84.2047 134.455 83.7703C132.398 83.3359 130.465 82.7988 128.657 82.1576C127.435 81.7241 126.288 81.2489 125.216 80.7311V88.718C126.451 89.3717 127.82 89.9664 129.326 90.5004C131.042 91.1092 132.889 91.6233 134.868 92.0412C136.847 92.4592 138.957 92.7807 141.199 93.0048C143.438 93.2286 145.735 93.3407 148.091 93.3407ZM124.216 89.3121V79.0843C124.541 79.2659 124.874 79.4431 125.216 79.6158C126.373 80.1997 127.631 80.7328 128.991 81.2151C130.754 81.8401 132.644 82.3657 134.662 82.7919C136.68 83.218 138.825 83.5447 141.099 83.772C143.373 83.9993 145.704 84.113 148.091 84.113C150.479 84.113 152.781 83.9993 154.998 83.772C157.215 83.5447 159.332 83.218 161.35 82.7919C163.368 82.3657 165.272 81.8401 167.063 81.2151C168.459 80.7278 169.76 80.1887 170.966 79.5979C171.307 79.4308 171.64 79.2596 171.966 79.0843V89.3121C170.488 90.1076 168.854 90.8178 167.063 91.4429C165.272 92.0679 163.368 92.5935 161.35 93.0197C159.332 93.4458 157.215 93.7725 154.998 93.9998C152.781 94.2271 150.479 94.3407 148.091 94.3407C145.704 94.3407 143.373 94.2271 141.099 93.9998C138.825 93.7725 136.68 93.4458 134.662 93.0197C132.644 92.5935 130.754 92.0679 128.991 91.4429C127.229 90.8178 125.637 90.1076 124.216 89.3121ZM148.091 110.387C150.655 110.387 153.264 110.192 155.918 109.801C158.58 109.409 161.023 108.892 163.248 108.253C165.476 107.612 167.31 106.897 168.764 106.117C170.128 105.384 170.749 104.753 170.966 104.294V97.7536C169.847 98.281 168.655 98.7647 167.393 99.2055C165.558 99.8458 163.613 100.382 161.557 100.817C159.502 101.251 157.349 101.583 155.1 101.813C152.847 102.044 150.51 102.159 148.091 102.159C145.672 102.159 143.308 102.044 141 101.813C138.694 101.583 136.512 101.251 134.455 100.817C132.398 100.382 130.465 99.8451 128.657 99.2039C127.435 98.7704 126.288 98.2952 125.216 97.7774V104.38C125.431 104.836 126.038 105.453 127.369 106.156C128.797 106.91 130.618 107.611 132.849 108.253C135.073 108.892 137.529 109.409 140.22 109.801C142.904 110.192 145.527 110.387 148.091 110.387ZM124.216 104.569V96.1306C124.541 96.3122 124.874 96.4894 125.216 96.6621C126.373 97.246 127.631 97.7791 128.991 98.2614C130.754 98.8864 132.644 99.412 134.662 99.8382C136.68 100.264 138.825 100.591 141.099 100.818C143.373 101.046 145.704 101.159 148.091 101.159C150.479 101.159 152.781 101.046 154.998 100.818C157.215 100.591 159.332 100.264 161.35 99.8382C163.368 99.412 165.272 98.8864 167.063 98.2614C168.459 97.7741 169.76 97.235 170.966 96.6442C171.307 96.4771 171.64 96.3059 171.966 96.1306V104.483C171.682 105.336 170.772 106.174 169.237 106.998C167.702 107.822 165.798 108.56 163.524 109.214C161.251 109.867 158.764 110.393 156.064 110.79C153.363 111.188 150.706 111.387 148.091 111.387C145.476 111.387 142.805 111.188 140.076 110.79C137.347 110.393 134.846 109.867 132.573 109.214C130.299 108.56 128.409 107.836 126.902 107.04C125.396 106.245 124.501 105.421 124.216 104.569ZM126.305 114.242C132.246 116.884 139.508 118.206 148.091 118.206C156.675 118.206 163.937 116.884 169.877 114.242C175.817 111.6 178.787 108.376 178.787 104.569V70.4759C178.787 66.7257 175.789 63.5153 169.792 60.8448C163.794 58.1742 156.561 56.8389 148.091 56.8389C139.621 56.8389 132.388 58.1742 126.391 60.8448C120.394 63.5153 117.395 66.7257 117.395 70.4759V104.569C117.395 108.376 120.365 111.6 126.305 114.242Z" fill="#7777F8"/>
</g>
</g>
</svg>
