<svg xmlns="http://www.w3.org/2000/svg" fill="none" viewBox="0 0 167 167">
  <rect width="167" height="167" fill="url(#a)" rx="83.5"/>
  <g filter="url(#b)">
    <path fill="#C4F8FF" d="M55.75 51.5a8.22 8.22 0 0 0-8.25 8.22V98.9a8.22 8.22 0 0 0 8.25 8.22h13.33c1.08 0 1.9-.83 1.9-1.9 0-1.07-.82-1.9-1.9-1.9H55.75a4.4 4.4 0 0 1-4.44-4.42V59.72a4.4 4.4 0 0 1 4.44-4.43h50.78a4.4 4.4 0 0 1 4.45 4.43v24.77c0 .88.57 1.64 1.46 1.83 1.2.32 2.35-.57 2.35-1.83V59.72a8.22 8.22 0 0 0-8.26-8.22H55.75Zm2.31 15.7a1.9 1.9 0 0 0-1.36.42 1.9 1.9 0 0 0-.25 2.65c.57.7 13.65 15.99 24.7 15.99 11.04 0 24.11-15.3 24.69-15.93.7-.82.57-2.02-.26-2.65a1.85 1.85 0 0 0-2.66.19c0 .06-3.24 3.79-7.56 7.46-5.58 4.67-10.47 7.14-14.22 7.14-3.74 0-8.63-2.47-14.22-7.14a61.65 61.65 0 0 1-7.55-7.46 1.91 1.91 0 0 0-1.3-.67Zm41.5 25.38c-14.42 0-20.96 4.23-20.96 8.22v21.48c0 3.99 6.54 8.22 20.95 8.22s20.95-4.23 20.95-8.22V100.8c0-3.99-6.54-8.22-20.95-8.22Zm0 3.8c11.1 0 17.13 3.15 17.13 4.42 0 1.26-6.03 4.42-17.14 4.42-11.1 0-17.14-3.16-17.14-4.42 0-1.27 6.03-4.43 17.14-4.43Zm-17.15 9.35c3.37 1.9 9.02 3.28 17.14 3.28 8.13 0 13.78-1.39 17.14-3.28v5.81c0 1.26-6.03 4.42-17.14 4.42-11.1 0-17.14-3.16-17.14-4.42v-5.81Zm0 10.74c3.37 1.9 9.02 3.29 17.14 3.29 8.13 0 13.78-1.4 17.14-3.29v5.81c0 1.27-6.03 4.43-17.14 4.43-11.1 0-17.14-3.16-17.14-4.43v-5.81Z"/>
  </g>
  <defs>
    <linearGradient id="a" x1="83.5" x2="83.5" y1="0" y2="167" gradientUnits="userSpaceOnUse">
      <stop stop-color="#204488"/>
      <stop offset="1" stop-color="#005694"/>
    </linearGradient>
    <filter id="b" width="103.24" height="109.24" x="32.38" y="36.38" color-interpolation-filters="sRGB" filterUnits="userSpaceOnUse">
      <feFlood flood-opacity="0" result="BackgroundImageFix"/>
      <feColorMatrix in="SourceAlpha" result="hardAlpha" values="0 0 0 0 0 0 0 0 0 0 0 0 0 0 0 0 0 0 127 0"/>
      <feOffset/>
      <feGaussianBlur stdDeviation="7.56"/>
      <feComposite in2="hardAlpha" operator="out"/>
      <feColorMatrix values="0 0 0 0 0.101667 0 0 0 0 1 0 0 0 0 0.946099 0 0 0 0.6 0"/>
      <feBlend in2="BackgroundImageFix" result="effect1_dropShadow_801_2249"/>
      <feBlend in="SourceGraphic" in2="effect1_dropShadow_801_2249" result="shape"/>
    </filter>
  </defs>
</svg>
