<svg xmlns="http://www.w3.org/2000/svg" fill="none" viewBox="0 0 167 168">
  <rect width="167" height="167" y=".5" fill="url(#a)" rx="83.5"/>
  <g filter="url(#b)">
    <path fill="#C4F8FF" d="M64.12 43.3A21.39 21.39 0 0 0 42.8 64.72a21.39 21.39 0 0 0 21.32 21.42c11.75 0 21.31-9.6 21.31-21.42A21.39 21.39 0 0 0 64.12 43.3Zm0 3.9a17.5 17.5 0 0 1 17.44 17.52 17.5 17.5 0 0 1-17.44 17.53 17.5 17.5 0 0 1-17.44-17.53A17.5 17.5 0 0 1 64.12 47.2Zm48.08 5.48c-.5 0-.99.19-1.37.56-.75.76-.75 2 0 2.76l6.74 6.77H96.42a1.94 1.94 0 0 0 0 3.9h21.16l-6.74 6.77a1.95 1.95 0 0 0 1.37 3.32c.5 0 1-.19 1.37-.57l10.05-10.1a1.96 1.96 0 0 0 0-2.75l-10.06-10.1a1.93 1.93 0 0 0-1.37-.56Zm-48.08 4.25c-1.08 0-1.94.87-1.94 1.95v11.68a1.94 1.94 0 1 0 3.88 0V58.88c0-1.08-.87-1.95-1.94-1.95Zm38.76 24.93a21.39 21.39 0 0 0-21.32 21.42 21.39 21.39 0 0 0 21.32 21.42c11.75 0 21.31-9.6 21.31-21.42a21.39 21.39 0 0 0-21.31-21.42Zm0 3.9a17.5 17.5 0 0 1 17.44 17.52 17.5 17.5 0 0 1-17.44 17.53 17.5 17.5 0 0 1-17.45-17.53 17.5 17.5 0 0 1 17.45-17.52Zm-48.09 5.48c-.5 0-1 .19-1.37.57l-10.05 10.1a1.95 1.95 0 0 0 0 2.75l10.05 10.1a1.92 1.92 0 0 0 2.74 0c.75-.76.75-2 0-2.76l-6.75-6.77h21.17c1.07 0 1.94-.87 1.94-1.95s-.87-1.95-1.94-1.95H49.4l6.74-6.77c.76-.76.76-2 0-2.75a1.92 1.92 0 0 0-1.36-.57Zm48.09 4.25c-1.08 0-1.94.87-1.94 1.95v11.68a1.94 1.94 0 1 0 3.87 0V97.44c0-1.08-.86-1.95-1.93-1.95Z"/>
  </g>
  <defs>
    <linearGradient id="a" x1="83.5" x2="83.5" y1=".5" y2="167.5" gradientUnits="userSpaceOnUse">
      <stop stop-color="#204488"/>
      <stop offset="1" stop-color="#005694"/>
    </linearGradient>
    <filter id="b" width="156.62" height="156.62" x="5.19" y="5.69" color-interpolation-filters="sRGB" filterUnits="userSpaceOnUse">
      <feFlood flood-opacity="0" result="BackgroundImageFix"/>
      <feColorMatrix in="SourceAlpha" result="hardAlpha" values="0 0 0 0 0 0 0 0 0 0 0 0 0 0 0 0 0 0 127 0"/>
      <feOffset/>
      <feGaussianBlur stdDeviation="18.81"/>
      <feComposite in2="hardAlpha" operator="out"/>
      <feColorMatrix values="0 0 0 0 0.101667 0 0 0 0 1 0 0 0 0 0.946099 0 0 0 0.6 0"/>
      <feBlend in2="BackgroundImageFix" result="effect1_dropShadow_801_2256"/>
      <feBlend in="SourceGraphic" in2="effect1_dropShadow_801_2256" result="shape"/>
    </filter>
  </defs>
</svg>
