<svg width="163" height="158" viewBox="0 0 163 158" fill="none" xmlns="http://www.w3.org/2000/svg">
<g id="Frame 98">
<ellipse id="Ellipse 1" cx="45.5" cy="112.5" rx="45" ry="45.5" fill="#66DAFF" fill-opacity="0.6"/>
<path id="cameraswitch" d="M73 96.125C69.9062 96.125 67.2578 95.0234 65.0547 92.8203C62.8516 90.6172 61.75 87.9688 61.75 84.875V51.125C61.75 48.0312 62.8516 45.3828 65.0547 43.1797C67.2578 40.9766 69.9062 39.875 73 39.875H78.625H83.9208H106.421H112.375H118C121.094 39.875 123.742 40.9766 125.945 43.1797C128.148 45.3828 129.25 48.0312 129.25 51.125V84.875C129.25 87.9688 128.148 90.6172 125.945 92.8203C123.742 95.0234 121.094 96.125 118 96.125H73ZM73 84.875H118V51.125H73V84.875ZM95.5 79.25C98.5938 79.25 101.242 78.1484 103.445 75.9453C105.648 73.7422 106.75 71.0938 106.75 68C106.75 64.9062 105.648 62.2578 103.445 60.0547C101.242 57.8516 98.5938 56.75 95.5 56.75C92.4062 56.75 89.7578 57.8516 87.5547 60.0547C85.3516 62.2578 84.25 64.9062 84.25 68C84.25 71.0938 85.3516 73.7422 87.5547 75.9453C89.7578 78.1484 92.4062 79.25 95.5 79.25ZM76.0938 3.3125C79.2812 2.28125 82.4922 1.55469 85.7266 1.13281C88.9609 0.710937 92.2188 0.5 95.5 0.5C104.312 0.5 112.633 2.07031 120.461 5.21094C128.289 8.35156 135.227 12.7109 141.273 18.2891C147.32 23.8672 152.266 30.4297 156.109 37.9766C159.953 45.5234 162.25 53.6562 163 62.375H151.75C151.094 55.625 149.312 49.3203 146.406 43.4609C143.5 37.6016 139.773 32.4453 135.227 27.9922C130.68 23.5391 125.453 19.9062 119.547 17.0938C113.641 14.2812 107.312 12.5937 100.562 12.0312L109.281 20.75L101.406 28.625L76.0938 3.3125ZM114.906 132.688C111.719 133.719 108.508 134.445 105.273 134.867C102.039 135.289 98.7812 135.5 95.5 135.5C86.6875 135.5 78.3672 133.93 70.5391 130.789C62.7109 127.648 55.7734 123.289 49.7266 117.711C43.6797 112.133 38.7344 105.57 34.8906 98.0234C31.0469 90.4766 28.75 82.3438 28 73.625H39.25C40 80.375 41.8047 86.6797 44.6641 92.5391C47.5234 98.3984 51.2266 103.555 55.7734 108.008C60.3203 112.461 65.5469 116.094 71.4531 118.906C77.3594 121.719 83.6875 123.406 90.4375 123.969L81.7188 115.25L89.5937 107.375L114.906 132.688Z" fill="#7777F8"/>
</g>
</svg>
