<svg xmlns="http://www.w3.org/2000/svg" fill="none" viewBox="0 0 167 168">
  <rect width="167" height="167" y=".5" fill="url(#a)" rx="83.5"/>
  <g filter="url(#b)">
    <path fill="#C4F8FF" d="M88.62 41a1.95 1.95 0 1 0 0 3.91 1.95 1.95 0 1 0 0-3.91Zm-10.03 1.98c-.26 0-.52.06-.76.17a28.73 28.73 0 0 0-15.27 15c-.46.97 0 2.08 1.05 2.54.26.13.53.13.79.13.79 0 1.51-.46 1.84-1.18 2.5-5.8 7.24-10.5 13.1-12.9a1.9 1.9 0 0 0 1.05-2.55 1.97 1.97 0 0 0-1.8-1.2Zm-.54 9.13c-.38 0-.76.12-1.08.36a19.2 19.2 0 0 0-3.82 3.46 1.93 1.93 0 0 0 1.52 3.19c.52 0 1.12-.26 1.51-.65a17.9 17.9 0 0 1 3.1-2.8 1.9 1.9 0 0 0 .45-2.74 2.13 2.13 0 0 0-1.68-.82Zm-19.7 14.96a5.26 5.26 0 0 0-5.27 5.22 5.26 5.26 0 0 0 5.27 5.21v17.6c0 1.11.85 1.96 1.97 1.96h15.14c.72 0 1.31.59 1.31 1.3 0 .72-.59 1.3-1.31 1.3H58.35a1.3 1.3 0 0 1-1.32-1.3c0-1.1-.86-1.95-1.97-1.95-1.12 0-1.98.84-1.98 1.95a5.26 5.26 0 0 0 5.27 5.22h17.1c2.9 0 5.27-2.35 5.27-5.22a5.26 5.26 0 0 0-5.26-5.21v-5.87h46.07c1.11 0 1.97-.85 1.97-1.95 0-1.11-.86-1.96-1.97-1.96H75.46V77.5c2.9 0 5.26-2.34 5.26-5.21a5.26 5.26 0 0 0-5.26-5.22H58.35Zm0 3.92h17.1c.73 0 1.32.58 1.32 1.3 0 .72-.59 1.3-1.31 1.3H58.35a1.3 1.3 0 0 1-1.32-1.3c0-.72.6-1.3 1.32-1.3Zm3.94 6.51h9.22v15.65h-9.22V77.5Zm-8.55 35.2c-1.12 0-1.98.85-1.98 1.96v4.56h-3.29c-1.11 0-1.97.85-1.97 1.96 0 1.1.86 1.95 1.97 1.95h5.27c1.12 0 1.97-.84 1.97-1.95v-4.57h9.22v2.61h-3.3c-1.11 0-1.97.85-1.97 1.96 0 1.1.86 1.95 1.98 1.95h25c1.12 0 1.98-.84 1.98-1.95 0-1.11-.86-1.96-1.97-1.96h-4.61v-4.56c0-1.1-.86-1.96-1.98-1.96H53.74Zm42.78 6.52c-.53 0-1.03.2-1.4.58a1.95 1.95 0 0 0 1.4 3.33 1.95 1.95 0 1 0 0-3.91Z"/>
  </g>
  <defs>
    <linearGradient id="a" x1="83.5" x2="83.5" y1=".5" y2="167.5" gradientUnits="userSpaceOnUse">
      <stop stop-color="#204488"/>
      <stop offset="1" stop-color="#005694"/>
    </linearGradient>
    <filter id="b" width="145.38" height="150.52" x="12.31" y="6.81" color-interpolation-filters="sRGB" filterUnits="userSpaceOnUse">
      <feFlood flood-opacity="0" result="BackgroundImageFix"/>
      <feColorMatrix in="SourceAlpha" result="hardAlpha" values="0 0 0 0 0 0 0 0 0 0 0 0 0 0 0 0 0 0 127 0"/>
      <feOffset/>
      <feGaussianBlur stdDeviation="17.1"/>
      <feComposite in2="hardAlpha" operator="out"/>
      <feColorMatrix values="0 0 0 0 0.101667 0 0 0 0 1 0 0 0 0 0.946099 0 0 0 0.6 0"/>
      <feBlend in2="BackgroundImageFix" result="effect1_dropShadow_801_2254"/>
      <feBlend in="SourceGraphic" in2="effect1_dropShadow_801_2254" result="shape"/>
    </filter>
  </defs>
</svg>
