<svg xmlns="http://www.w3.org/2000/svg" fill="none" viewBox="0 0 1508 1555">
  <path stroke="#2D9AFF" stroke-width="2" d="m3.18 411.35 81.53-84.2a7.64 7.64 0 0 1 11.02.05l22.42 23.57a7.68 7.68 0 0 1 .14 10.42l-54.57 60.65a7.64 7.64 0 0 1-5.69 2.53l-49.37-.02a7.67 7.67 0 0 1-5.48-13Zm254.43 10.61L129.76 287.18a7.67 7.67 0 0 1 0-10.55l124.36-131.6a7.64 7.64 0 0 1 5.55-2.4h46.37a7.67 7.67 0 0 1 5.55 12.93l-112.13 118.9a9.67 9.67 0 0 0-.06 13.21l114.9 123.8a7.67 7.67 0 0 1-5.6 12.88h-45.55c-2.1 0-4.1-.87-5.54-2.39ZM117.94 213.2l-24.17 25.3a7.64 7.64 0 0 1-11.1-.04l-78-82.91a7.67 7.67 0 0 1 5.57-12.93h47.31c2.1 0 4.09.86 5.53 2.38l54.86 57.6a7.68 7.68 0 0 1 0 10.58Z" opacity=".6"/>
  <path stroke="#2D9AFF" stroke-width="2" d="m493.12 1540.96 81.53-84.21a7.64 7.64 0 0 1 11.02.05l22.42 23.57a7.68 7.68 0 0 1 .15 10.42l-54.58 60.65a7.63 7.63 0 0 1-5.68 2.54l-49.38-.02a7.67 7.67 0 0 1-5.48-13Zm254.43 10.6L619.7 1416.79a7.68 7.68 0 0 1-.01-10.55l124.36-131.61a7.63 7.63 0 0 1 5.55-2.39h46.37a7.67 7.67 0 0 1 5.55 12.93L689.4 1404.06a9.68 9.68 0 0 0-.05 13.22l114.89 123.79a7.66 7.66 0 0 1-5.6 12.88h-45.55a7.6 7.6 0 0 1-5.54-2.39ZM607.88 1342.8l-24.17 25.31a7.64 7.64 0 0 1-11.1-.04l-78-82.91a7.67 7.67 0 0 1 5.57-12.92h47.31c2.1 0 4.1.85 5.53 2.37l54.87 57.6a7.68 7.68 0 0 1-.01 10.59Z" opacity=".6"/>
  <path stroke="#2D9AFF" stroke-width="2" d="m289.16 269.72 81.53-84.2a7.64 7.64 0 0 1 11.03.04l22.41 23.57a7.68 7.68 0 0 1 .15 10.43L349.7 280.2a7.64 7.64 0 0 1-5.68 2.53l-49.37-.02a7.66 7.66 0 0 1-5.49-13Zm254.43 10.6L415.75 145.56a7.68 7.68 0 0 1-.01-10.55L540.1 3.4a7.64 7.64 0 0 1 5.56-2.4h46.36a7.67 7.67 0 0 1 5.56 12.93l-112.14 118.9a9.67 9.67 0 0 0-.05 13.2l114.9 123.8a7.67 7.67 0 0 1-5.6 12.88h-45.56c-2.1 0-4.1-.86-5.54-2.38ZM403.92 71.57l-24.17 25.32a7.64 7.64 0 0 1-11.09-.05l-78-82.91A7.67 7.67 0 0 1 296.22 1h47.31c2.1 0 4.1.86 5.54 2.37l54.86 57.6a7.68 7.68 0 0 1 0 10.59Z" opacity=".6"/>
  <path stroke="#2D9AFF" stroke-width="2" d="m130.7 693.75 81.53-84.2a7.64 7.64 0 0 1 11.03.05l22.42 23.57a7.67 7.67 0 0 1 .14 10.42l-54.58 60.65a7.64 7.64 0 0 1-5.68 2.53l-49.37-.02a7.67 7.67 0 0 1-5.49-13Zm254.43 10.61L257.3 569.58a7.68 7.68 0 0 1 0-10.55l124.35-131.6a7.64 7.64 0 0 1 5.56-2.4h46.36a7.67 7.67 0 0 1 5.56 12.93l-112.14 118.9a9.67 9.67 0 0 0-.05 13.21l114.9 123.8a7.67 7.67 0 0 1-5.6 12.88h-45.55c-2.1 0-4.1-.87-5.55-2.39ZM245.47 495.6l-24.18 25.31a7.64 7.64 0 0 1-11.09-.04l-78-82.92a7.67 7.67 0 0 1 5.56-12.92h47.32c2.09 0 4.09.86 5.53 2.38l54.86 57.6a7.67 7.67 0 0 1 0 10.59Z" opacity=".6"/>
  <path stroke="#2D9AFF" stroke-width="2" d="m416.69 552.12 81.53-84.2a7.64 7.64 0 0 1 11.02.04l22.42 23.57a7.67 7.67 0 0 1 .15 10.42l-54.58 60.66a7.64 7.64 0 0 1-5.68 2.53l-49.38-.02c-6.75 0-10.19-8.14-5.48-13Zm254.43 10.6L543.28 427.95a7.68 7.68 0 0 1-.01-10.55l124.36-131.6a7.64 7.64 0 0 1 5.55-2.4h46.37a7.67 7.67 0 0 1 5.56 12.93L612.97 415.21a9.68 9.68 0 0 0-.05 13.21l114.9 123.8a7.67 7.67 0 0 1-5.61 12.88h-45.55a7.6 7.6 0 0 1-5.54-2.39ZM531.45 353.96l-24.17 25.31a7.64 7.64 0 0 1-11.1-.04l-78-82.91a7.67 7.67 0 0 1 5.57-12.92h47.31c2.1 0 4.1.86 5.54 2.37l54.86 57.6a7.67 7.67 0 0 1 0 10.59Z" opacity=".6"/>
  <path stroke="#2D9AFF" stroke-width="2" d="m258.23 976.15 81.53-84.2a7.64 7.64 0 0 1 11.03.05l22.41 23.57a7.67 7.67 0 0 1 .15 10.42l-54.58 60.65a7.64 7.64 0 0 1-5.68 2.53l-49.37-.02a7.66 7.66 0 0 1-5.49-13Zm254.43 10.6L384.82 851.99a7.68 7.68 0 0 1-.01-10.55l124.36-131.6a7.64 7.64 0 0 1 5.56-2.4h46.36a7.67 7.67 0 0 1 5.56 12.93L454.5 839.26a9.68 9.68 0 0 0-.05 13.21l114.9 123.79a7.67 7.67 0 0 1-5.6 12.88H518.2c-2.1 0-4.1-.86-5.54-2.38ZM372.99 778l-24.17 25.32a7.64 7.64 0 0 1-11.1-.04l-78-82.92a7.67 7.67 0 0 1 5.57-12.92h47.31c2.1 0 4.1.86 5.54 2.38L373 767.4a7.68 7.68 0 0 1 0 10.58Z" opacity=".6"/>
  <path stroke="#2D9AFF" stroke-width="2" d="m544.22 834.52 81.52-84.2a7.64 7.64 0 0 1 11.03.04l22.42 23.58a7.68 7.68 0 0 1 .14 10.42L604.76 845a7.64 7.64 0 0 1-5.69 2.53l-49.37-.02a7.67 7.67 0 0 1-5.48-13Zm254.42 10.6L670.8 710.36a7.67 7.67 0 0 1 0-10.55l124.36-131.6a7.64 7.64 0 0 1 5.55-2.4h46.36a7.67 7.67 0 0 1 5.56 12.93L740.5 697.63a9.68 9.68 0 0 0-.06 13.2l114.9 123.8a7.67 7.67 0 0 1-5.6 12.88h-45.55c-2.1 0-4.1-.86-5.55-2.38ZM658.99 636.37l-24.17 25.32a7.64 7.64 0 0 1-11.1-.04l-78-82.92a7.67 7.67 0 0 1 5.57-12.92h47.31c2.09 0 4.09.86 5.53 2.37l54.87 57.6a7.68 7.68 0 0 1-.01 10.6Z" opacity=".6"/>
  <path stroke="#2D9AFF" stroke-width="2" d="m385.76 1258.55 81.53-84.2a7.64 7.64 0 0 1 11.02.05l22.42 23.57a7.68 7.68 0 0 1 .14 10.42l-54.57 60.65a7.65 7.65 0 0 1-5.69 2.53l-49.37-.02c-6.75 0-10.19-8.14-5.48-13Zm254.43 10.61-127.84-134.78a7.68 7.68 0 0 1-.01-10.55l124.36-131.6a7.64 7.64 0 0 1 5.55-2.4h46.37a7.67 7.67 0 0 1 5.55 12.93l-112.13 118.89a9.68 9.68 0 0 0-.05 13.22l114.89 123.79a7.66 7.66 0 0 1-5.6 12.88h-45.55c-2.1 0-4.1-.86-5.54-2.38Zm-139.67-208.77-24.17 25.32a7.64 7.64 0 0 1-11.1-.04l-78-82.92a7.66 7.66 0 0 1 5.57-12.92h47.31c2.1 0 4.1.86 5.53 2.38l54.87 57.59a7.67 7.67 0 0 1-.01 10.59Z" opacity=".6"/>
  <path stroke="#2D9AFF" stroke-width="2" d="m671.74 1116.92 81.53-84.21a7.64 7.64 0 0 1 11.03.05l22.42 23.57a7.68 7.68 0 0 1 .14 10.42l-54.58 60.65a7.63 7.63 0 0 1-5.68 2.54l-49.37-.02a7.67 7.67 0 0 1-5.49-13Zm254.43 10.6L798.33 992.75a7.67 7.67 0 0 1 0-10.55l124.35-131.6a7.64 7.64 0 0 1 5.56-2.4h46.36a7.67 7.67 0 0 1 5.56 12.92l-112.14 118.9a9.68 9.68 0 0 0-.05 13.21l114.9 123.79a7.67 7.67 0 0 1-5.6 12.89h-45.55c-2.1 0-4.1-.86-5.55-2.39ZM786.51 918.76l-24.18 25.31a7.64 7.64 0 0 1-11.09-.04l-78-82.91a7.67 7.67 0 0 1 5.56-12.92h47.32a7.6 7.6 0 0 1 5.53 2.37l54.86 57.6a7.67 7.67 0 0 1 0 10.59Z" opacity=".6"/>
  <path stroke="#2D9AFF" stroke-width="2" d="m793.18 1400.72 81.53-84.21a7.64 7.64 0 0 1 11.02.05l22.42 23.58a7.66 7.66 0 0 1 .14 10.41l-54.57 60.66a7.65 7.65 0 0 1-5.69 2.53l-49.37-.02a7.66 7.66 0 0 1-5.48-13Zm254.43 10.61-127.84-134.78a7.68 7.68 0 0 1-.01-10.55l124.36-131.61a7.62 7.62 0 0 1 5.55-2.39h46.36a7.66 7.66 0 0 1 5.56 12.93l-112.13 118.89a9.68 9.68 0 0 0-.06 13.22l114.9 123.79a7.66 7.66 0 0 1-5.6 12.88h-45.55c-2.1 0-4.1-.86-5.54-2.38Zm-139.67-208.77-24.17 25.32a7.63 7.63 0 0 1-11.1-.05l-78-82.91a7.66 7.66 0 0 1 5.57-12.92h47.31c2.1 0 4.09.86 5.53 2.37l54.87 57.6a7.68 7.68 0 0 1-.01 10.59Z" opacity=".6"/>
  <path stroke="#2D9AFF" stroke-width="2" d="m703.18 411.35 81.53-84.2a7.64 7.64 0 0 1 11.02.05l22.42 23.57a7.68 7.68 0 0 1 .14 10.42l-54.57 60.65a7.64 7.64 0 0 1-5.69 2.53l-49.37-.02a7.67 7.67 0 0 1-5.48-13Zm254.43 10.61L829.75 287.18a7.67 7.67 0 0 1 0-10.55l124.36-131.6a7.64 7.64 0 0 1 5.55-2.4h46.36a7.66 7.66 0 0 1 5.56 12.93l-112.13 118.9a9.67 9.67 0 0 0-.06 13.21l114.9 123.8a7.67 7.67 0 0 1-5.6 12.88h-45.55c-2.1 0-4.1-.87-5.54-2.39ZM817.94 213.2l-24.17 25.31a7.64 7.64 0 0 1-11.1-.04l-78-82.91a7.67 7.67 0 0 1 5.57-12.93h47.31c2.1 0 4.09.86 5.53 2.38l54.87 57.6a7.68 7.68 0 0 1-.01 10.58Z" opacity=".6"/>
  <path stroke="#2D9AFF" stroke-width="2" d="m1193.12 1540.96 81.53-84.21a7.63 7.63 0 0 1 11.02.05l22.42 23.57a7.68 7.68 0 0 1 .15 10.42l-54.58 60.65a7.63 7.63 0 0 1-5.68 2.54l-49.38-.02a7.66 7.66 0 0 1-5.48-13Zm254.43 10.6-127.84-134.77a7.67 7.67 0 0 1-.01-10.55l124.36-131.61a7.62 7.62 0 0 1 5.55-2.39h46.37a7.66 7.66 0 0 1 5.55 12.93l-112.13 118.89a9.68 9.68 0 0 0-.05 13.22l114.89 123.79a7.66 7.66 0 0 1-5.6 12.88h-45.55a7.6 7.6 0 0 1-5.54-2.39Zm-139.67-208.76-24.17 25.31a7.64 7.64 0 0 1-11.09-.04l-78.01-82.91a7.67 7.67 0 0 1 5.57-12.92h47.31a7.6 7.6 0 0 1 5.53 2.37l54.87 57.6a7.68 7.68 0 0 1-.01 10.59Z" opacity=".6"/>
  <path stroke="#2D9AFF" stroke-width="2" d="m830.7 693.75 81.53-84.2a7.64 7.64 0 0 1 11.03.05l22.42 23.57a7.67 7.67 0 0 1 .14 10.42l-54.58 60.65a7.64 7.64 0 0 1-5.68 2.53l-49.37-.02a7.67 7.67 0 0 1-5.49-13Zm254.43 10.61L957.29 569.58a7.68 7.68 0 0 1 0-10.55l124.36-131.6a7.63 7.63 0 0 1 5.55-2.4h46.36a7.67 7.67 0 0 1 5.56 12.93l-112.14 118.9a9.68 9.68 0 0 0-.05 13.21l114.9 123.8a7.67 7.67 0 0 1-5.61 12.88h-45.54c-2.1 0-4.1-.87-5.55-2.39ZM945.46 495.6l-24.16 25.3a7.64 7.64 0 0 1-11.09-.04l-78-82.92a7.67 7.67 0 0 1 5.56-12.92h47.32c2.09 0 4.09.86 5.53 2.38l54.86 57.6a7.67 7.67 0 0 1 0 10.59Z" opacity=".6"/>
  <path stroke="#2D9AFF" stroke-width="2" d="m958.23 976.15 81.53-84.2a7.64 7.64 0 0 1 11.03.05l22.41 23.57a7.67 7.67 0 0 1 .15 10.42l-54.58 60.65a7.64 7.64 0 0 1-5.68 2.53l-49.37-.02a7.66 7.66 0 0 1-5.49-13Zm254.43 10.6-127.84-134.77a7.67 7.67 0 0 1-.01-10.55l124.36-131.6a7.66 7.66 0 0 1 5.56-2.4h46.36a7.67 7.67 0 0 1 5.56 12.93l-112.14 118.9a9.67 9.67 0 0 0-.05 13.21l114.89 123.79a7.67 7.67 0 0 1-5.6 12.88h-45.55c-2.09 0-4.1-.86-5.54-2.38ZM1072.99 778l-24.17 25.32a7.64 7.64 0 0 1-11.09-.04l-78-82.92a7.67 7.67 0 0 1 5.56-12.92h47.31c2.09 0 4.09.86 5.54 2.38l54.86 57.6a7.68 7.68 0 0 1-.01 10.58Z" opacity=".6"/>
  <path stroke="#2D9AFF" stroke-width="2" d="m1085.76 1258.55 81.53-84.2a7.63 7.63 0 0 1 11.02.05l22.42 23.57a7.68 7.68 0 0 1 .15 10.42l-54.58 60.65a7.65 7.65 0 0 1-5.68 2.53l-49.38-.02c-6.75 0-10.19-8.14-5.48-13Zm254.43 10.61-127.84-134.78a7.67 7.67 0 0 1-.01-10.55l124.36-131.6a7.63 7.63 0 0 1 5.55-2.4h46.37a7.66 7.66 0 0 1 5.55 12.93l-112.13 118.89a9.69 9.69 0 0 0-.06 13.22l114.9 123.79a7.66 7.66 0 0 1-5.6 12.88h-45.55c-2.1 0-4.1-.86-5.54-2.38Zm-139.67-208.77-24.17 25.32a7.64 7.64 0 0 1-11.09-.04l-78.01-82.92a7.67 7.67 0 0 1 5.57-12.92h47.31c2.09 0 4.09.86 5.53 2.38l54.87 57.59a7.68 7.68 0 0 1-.01 10.59Z" opacity=".6"/>
</svg>
